<svg id="Layer_1" data-name="Layer 1" xmlns="http://www.w3.org/2000/svg" viewBox="0 0 300 300"><defs><style>.cls-1{fill:#95d5d2;}.cls-2{fill:#80b7b6;}.cls-3{fill:#f9a66d;}.cls-4{fill:#f58648;}.cls-5{fill:#fff;}.cls-6{fill:#939598;}.cls-7{fill:#6e6f72;}.cls-8{fill:#f3f3f3;}.cls-9{fill:none;stroke:#333;stroke-miterlimit:10;}.cls-10{fill:#2e3690;}.cls-11{fill:#7fc347;}.cls-12{fill:#f15b3e;}.cls-13{fill:#ffcc52;}.cls-14{fill:#676767;opacity:0.75;}.cls-15{fill:#54adc6;}.cls-16{fill:#818181;}</style></defs><polygon class="cls-1" points="223.72 63.56 259.04 94.9 259.04 19.35 40.96 19.35 40.96 280.65 101.9 280.65 75.89 257.56 223.72 63.56"/><polygon class="cls-2" points="259.04 94.9 223.72 63.56 75.89 257.56 101.9 280.65 259.04 280.65 259.04 94.9"/><path class="cls-3" d="M220.24,62H79.76a5.91,5.91,0,0,0-5.89,5.89v183.7a5.88,5.88,0,0,0,1.82,4.24L224,63.3A5.85,5.85,0,0,0,220.24,62Z"/><path class="cls-4" d="M224,63.3,75.69,255.79a5.87,5.87,0,0,0,4.07,1.65H220.24a5.91,5.91,0,0,0,5.89-5.89V67.85A5.91,5.91,0,0,0,224,63.3Z"/><rect class="cls-5" x="85.18" y="75.34" width="129.64" height="167.97"/><path class="cls-6" d="M150,69.94a14.25,14.25,0,0,1-14.11-12.28H126.7a16.48,16.48,0,0,0-16.48,16.49V84.68H150Z"/><path class="cls-7" d="M150,69.94V84.68h39.78V74.15A16.48,16.48,0,0,0,173.3,57.66h-9.19A14.25,14.25,0,0,1,150,69.94Z"/><path class="cls-6" d="M143.12,55.7A6.88,6.88,0,0,1,150,48.82V41.45A14.24,14.24,0,0,0,135.76,55.7a15.74,15.74,0,0,0,.13,2h7.52A7,7,0,0,1,143.12,55.7Z"/><path class="cls-7" d="M156.88,55.7a7,7,0,0,1-.29,2h7.52a15.74,15.74,0,0,0,.13-2A14.24,14.24,0,0,0,150,41.45v7.37A6.88,6.88,0,0,1,156.88,55.7Z"/><path class="cls-7" d="M150,62.57v7.37a14.25,14.25,0,0,0,14.11-12.28h-7.52A6.89,6.89,0,0,1,150,62.57Z"/><path class="cls-6" d="M150,69.94V62.57a6.89,6.89,0,0,1-6.59-4.91h-7.52A14.25,14.25,0,0,0,150,69.94Z"/><path class="cls-8" d="M150,48.82a6.88,6.88,0,0,0-6.88,6.88,7,7,0,0,0,.29,2H150Z"/><path class="cls-8" d="M156.59,57.66a7,7,0,0,0,.29-2A6.88,6.88,0,0,0,150,48.82v8.84Z"/><path class="cls-8" d="M156.59,57.66H150v4.91A6.89,6.89,0,0,0,156.59,57.66Z"/><path class="cls-8" d="M143.41,57.66A6.89,6.89,0,0,0,150,62.57V57.66Z"/><rect class="cls-9" x="93.03" y="177.75" width="113.95" height="57.96"/><rect class="cls-9" x="93.03" y="112.43" width="113.95" height="57.96"/><path class="cls-10" d="M112.76,123.14a21,21,0,0,0-9.37,10.77l19.49,7.49Z"/><path class="cls-11" d="M122.88,120.53a20.84,20.84,0,0,0-10.12,2.61l10.12,18.26Z"/><path class="cls-12" d="M103.39,133.91A20.93,20.93,0,0,0,102,141.4a21.3,21.3,0,0,0,.64,5.15l20.24-5.15Z"/><path class="cls-13" d="M122.88,120.53V141.4l-20.24,5.15a20.88,20.88,0,1,0,20.24-26Z"/><rect class="cls-13" x="154.66" y="124.21" width="7.06" height="7.06"/><rect class="cls-14" x="169.93" y="125.44" width="28.07" height="4.6"/><rect class="cls-11" x="154.66" y="134.36" width="7.06" height="7.06"/><rect class="cls-14" x="169.93" y="135.59" width="28.07" height="4.6"/><rect class="cls-10" x="154.66" y="144.51" width="7.06" height="7.06"/><rect class="cls-14" x="169.93" y="145.74" width="28.07" height="4.6"/><rect class="cls-12" x="154.66" y="154.66" width="7.06" height="7.06"/><rect class="cls-14" x="169.93" y="155.89" width="28.07" height="4.6"/><path class="cls-11" d="M123.15,185.86h-.08a20.62,20.62,0,0,0-5,.61l5.08,20.18Z"/><path class="cls-13" d="M118.07,186.46A20.93,20.93,0,0,0,103,201.05l20.18,5.59Z"/><path class="cls-12" d="M143.94,206.73a20.87,20.87,0,0,0-20.79-20.87V227.6A20.87,20.87,0,0,0,143.94,206.73Z"/><path class="cls-10" d="M103,201.05a21,21,0,0,0,.32,12.38l19.86-6.79Z"/><path class="cls-15" d="M103.29,213.43a20.88,20.88,0,0,0,19.78,14.17h.08v-21Z"/><rect class="cls-13" x="154.47" y="183.4" width="7.06" height="7.06"/><rect class="cls-14" x="169.74" y="184.63" width="28.07" height="4.6"/><rect class="cls-11" x="154.47" y="193.55" width="7.06" height="7.06"/><rect class="cls-14" x="169.74" y="194.78" width="28.07" height="4.6"/><rect class="cls-10" x="154.47" y="203.69" width="7.06" height="7.06"/><rect class="cls-14" x="169.74" y="204.93" width="28.07" height="4.6"/><rect class="cls-12" x="154.47" y="213.84" width="7.06" height="7.06"/><rect class="cls-14" x="169.74" y="215.07" width="28.07" height="4.6"/><rect class="cls-15" x="154.47" y="223.88" width="7.06" height="7.06"/><rect class="cls-14" x="169.74" y="225.11" width="28.07" height="4.6"/><g id="Title_Reports_" data-name="Title (Reports)"><path class="cls-16" d="M100.24,105V89.92h6.43a11,11,0,0,1,3.52.41A3.45,3.45,0,0,1,112,91.78a4.32,4.32,0,0,1,.66,2.38,4.08,4.08,0,0,1-1,2.81,4.87,4.87,0,0,1-3,1.4,7,7,0,0,1,1.63,1.26,17.11,17.11,0,0,1,1.74,2.46l1.84,3h-3.65l-2.2-3.29a20.74,20.74,0,0,0-1.61-2.22,2.3,2.3,0,0,0-.92-.63,4.81,4.81,0,0,0-1.54-.17h-.61V105Zm3.06-8.73h2.25a12.09,12.09,0,0,0,2.75-.18,1.67,1.67,0,0,0,.85-.64,1.94,1.94,0,0,0,.31-1.14,1.82,1.82,0,0,0-.4-1.23,1.91,1.91,0,0,0-1.15-.59c-.25,0-1,0-2.23,0H103.3Z"/><path class="cls-16" d="M115.48,105V89.92h11.21v2.56h-8.15v3.35h7.59v2.55h-7.59v4.11H127V105Z"/><path class="cls-16" d="M129.57,105V89.92h4.9a17.73,17.73,0,0,1,3.63.23,3.94,3.94,0,0,1,2.18,1.48,4.71,4.71,0,0,1,.87,2.94,5,5,0,0,1-.5,2.34,4.19,4.19,0,0,1-1.29,1.49,4.47,4.47,0,0,1-1.58.72,18,18,0,0,1-3.17.21h-2V105Zm3.05-12.56v4.29h1.67a7.85,7.85,0,0,0,2.42-.24,2,2,0,0,0,1.3-1.92,1.93,1.93,0,0,0-.49-1.36,2.08,2.08,0,0,0-1.23-.67,14.49,14.49,0,0,0-2.19-.1Z"/><path class="cls-16" d="M143,97.57a9.66,9.66,0,0,1,.69-3.88,6.91,6.91,0,0,1,1.41-2.07,5.89,5.89,0,0,1,2-1.36,8.28,8.28,0,0,1,3.26-.6,7.11,7.11,0,0,1,5.35,2.07,8,8,0,0,1,2,5.77,7.91,7.91,0,0,1-2,5.73,7,7,0,0,1-5.32,2.07,7.12,7.12,0,0,1-5.36-2.06A7.79,7.79,0,0,1,143,97.57Zm3.14-.1a5.66,5.66,0,0,0,1.19,3.89,3.87,3.87,0,0,0,3,1.33,3.83,3.83,0,0,0,3-1.32,5.78,5.78,0,0,0,1.17-3.94,5.67,5.67,0,0,0-1.14-3.88,4.23,4.23,0,0,0-6.07,0A5.74,5.74,0,0,0,146.18,97.47Z"/><path class="cls-16" d="M160.1,105V89.92h6.42a11,11,0,0,1,3.52.41,3.45,3.45,0,0,1,1.76,1.45,4.32,4.32,0,0,1,.66,2.38,4,4,0,0,1-1,2.81,4.84,4.84,0,0,1-3,1.4,7,7,0,0,1,1.63,1.26,17.11,17.11,0,0,1,1.74,2.46l1.85,3H170l-2.21-3.29a19.36,19.36,0,0,0-1.61-2.22,2.24,2.24,0,0,0-.92-.63,4.78,4.78,0,0,0-1.53-.17h-.62V105Zm3.05-8.73h2.26a12,12,0,0,0,2.74-.18,1.74,1.74,0,0,0,.86-.64,2,2,0,0,0,.3-1.14,1.82,1.82,0,0,0-.4-1.23,1.88,1.88,0,0,0-1.15-.59c-.25,0-1,0-2.23,0h-2.38Z"/><path class="cls-16" d="M178.74,105V92.48h-4.49V89.92h12v2.56h-4.48V105Z"/><path class="cls-16" d="M187.46,100.12l3-.29a3.67,3.67,0,0,0,1.09,2.2,3.34,3.34,0,0,0,2.21.7,3.39,3.39,0,0,0,2.23-.63,1.83,1.83,0,0,0,.74-1.46,1.38,1.38,0,0,0-.31-.91,2.49,2.49,0,0,0-1.1-.65c-.36-.13-1.17-.35-2.44-.66a8.37,8.37,0,0,1-3.45-1.5,4,4,0,0,1-1.39-3,3.86,3.86,0,0,1,.66-2.16,4.05,4.05,0,0,1,1.88-1.53,7.6,7.6,0,0,1,3-.53,6.37,6.37,0,0,1,4.28,1.25,4.37,4.37,0,0,1,1.51,3.33l-3,.13a2.59,2.59,0,0,0-.84-1.67,3.07,3.07,0,0,0-1.93-.51,3.55,3.55,0,0,0-2.09.54,1.12,1.12,0,0,0-.48.94,1.16,1.16,0,0,0,.45.92,8.12,8.12,0,0,0,2.81,1,14.49,14.49,0,0,1,3.29,1.09,4.21,4.21,0,0,1,1.67,1.54,4.41,4.41,0,0,1,.61,2.4,4.48,4.48,0,0,1-.72,2.44,4.37,4.37,0,0,1-2,1.68,8.49,8.49,0,0,1-3.29.56,6.55,6.55,0,0,1-4.4-1.33A5.78,5.78,0,0,1,187.46,100.12Z"/></g></svg>